<svg width="276" height="174" viewBox="0 0 276 174" fill="none" xmlns="http://www.w3.org/2000/svg">
<mask id="path-1-inside-1_47_284" fill="white">
<path fill-rule="evenodd" clip-rule="evenodd" d="M0 119C0 149.376 24.6243 174 55 174H221C251.376 174 276 149.376 276 119C276 93.5083 258.658 72.0671 235.127 65.8313C229.5 28.5654 197.336 0 158.5 0C129.627 0 104.441 15.7894 91.1071 39.2048C85.6465 36.5125 79.4999 35 73 35C52.8357 35 36.0713 49.5565 32.6418 68.7345C13.4084 77.3025 0 96.5854 0 119Z"/>
</mask>
<path fill-rule="evenodd" clip-rule="evenodd" d="M0 119C0 149.376 24.6243 174 55 174H221C251.376 174 276 149.376 276 119C276 93.5083 258.658 72.0671 235.127 65.8313C229.5 28.5654 197.336 0 158.5 0C129.627 0 104.441 15.7894 91.1071 39.2048C85.6465 36.5125 79.4999 35 73 35C52.8357 35 36.0713 49.5565 32.6418 68.7345C13.4084 77.3025 0 96.5854 0 119Z" fill="white"/>
<path d="M235.127 65.8313L233.15 66.1299L233.346 67.4282L234.615 67.7646L235.127 65.8313ZM91.1071 39.2048L90.2226 40.9986L91.9126 41.8319L92.845 40.1945L91.1071 39.2048ZM32.6418 68.7345L33.4556 70.5615L34.4239 70.1301L34.6105 69.0866L32.6418 68.7345ZM55 172C25.7289 172 2 148.271 2 119H-2C-2 150.48 23.5198 176 55 176V172ZM221 172H55V176H221V172ZM274 119C274 148.271 250.271 172 221 172V176C252.48 176 278 150.48 278 119H274ZM234.615 67.7646C257.29 73.7738 274 94.438 274 119H278C278 92.5785 260.025 70.3605 235.64 63.898L234.615 67.7646ZM158.5 2C196.332 2 227.668 29.8275 233.15 66.1299L237.105 65.5327C231.332 27.3033 198.34 -2 158.5 -2V2ZM92.845 40.1945C105.838 17.3782 130.374 2 158.5 2V-2C128.879 -2 103.044 14.2007 89.3691 38.2151L92.845 40.1945ZM73 37C79.1864 37 85.0311 38.439 90.2226 40.9986L91.9915 37.411C86.2619 34.5861 79.8133 33 73 33V37ZM34.6105 69.0866C37.8725 50.8454 53.8214 37 73 37V33C51.85 33 34.27 48.2676 30.673 68.3825L34.6105 69.0866ZM2 119C2 97.4036 14.9173 78.8197 33.4556 70.5615L31.8279 66.9076C11.8994 75.7852 -2 95.7672 -2 119H2Z" fill="#C4C4C4" mask="url(#path-1-inside-1_47_284)"/>
</svg>
