<svg width="262" height="311" viewBox="0 0 262 311" fill="none" xmlns="http://www.w3.org/2000/svg">
<path d="M98.9558 165.309C99.8242 163.923 100.172 161.844 99.4769 158.38C99.4769 158.38 110.071 178.82 119.103 187.654C128.134 196.488 134.387 200.125 150.539 203.59C166.691 207.054 180.759 205.668 186.665 203.59C192.57 201.511 194.828 200.125 196.564 195.275C198.301 190.425 199.691 185.921 202.47 181.937C205.422 177.78 207.333 169.985 209.243 163.576C211.154 157.167 216.538 146.255 215.148 137.074C213.759 127.894 211.154 117.5 210.98 113.69C210.806 109.879 211.154 106.588 211.675 101.738C212.196 96.8876 212.369 95.1554 207.854 83.3766C203.338 71.5978 199.17 61.0315 195.522 56.3547C195.522 56.3547 188.401 27.4273 129.35 42.6705" stroke="#76777E"/>
<path d="M212.891 125.122C212.891 125.122 216.19 123.39 215.322 118.367C214.627 113.343 212.891 108.666 214.106 94.4625C215.322 80.2586 214.801 74.5425 212.717 63.803C210.806 52.8902 205.596 39.7257 183.886 30.8916" stroke="#76777E"/>
<path d="M172.944 39.8994C172.944 39.8994 192.917 32.2779 184.059 13.0507C175.202 -6.17645 144.981 2.48444 135.081 6.12201C125.182 9.9328 96.0033 23.7902 89.0561 30.7189C82.1088 37.8208 61.0935 80.7788 57.0988 85.6289C53.1042 90.479 52.2358 88.92 52.0621 94.463C52.0621 94.463 49.2832 98.447 48.2411 104.683C47.199 110.745 44.7675 112.304 48.2411 124.949C51.7147 137.594 49.2832 140.712 51.3674 143.137C53.4515 145.735 55.362 150.412 55.362 150.412C55.362 150.412 56.4041 165.655 62.6566 173.45C62.6566 173.45 64.2197 188.174 66.9986 195.276C69.7775 202.378 76.3774 213.464 71.8617 221.432C67.346 229.4 65.2618 226.801 65.2618 226.801L67.346 229.4C67.346 229.4 58.6619 235.462 48.0674 232.517C48.0674 232.517 50.3253 237.368 66.6513 235.635C66.6513 235.635 76.3774 232.517 78.2879 228.36C78.2879 228.36 84.193 233.903 82.2825 240.312L84.5404 237.021C84.5404 237.021 83.8456 247.587 78.6352 252.784C78.6352 252.784 85.0614 249.666 86.9719 245.682C86.9719 245.682 84.3667 256.075 74.8143 259.886C74.8143 259.886 82.4562 259.713 84.0193 258.154L81.2404 261.964C81.2404 261.964 94.2665 261.445 98.6085 248.8C102.951 236.155 98.0875 216.408 98.0875 216.408C98.0875 216.408 101.387 230.612 110.592 237.368C119.798 244.296 123.792 251.052 123.271 257.461C123.271 257.461 120.492 214.676 102.256 190.252C102.256 190.252 109.55 190.772 110.419 190.772C110.419 190.772 99.8243 173.623 98.6085 166.348C98.6085 166.348 96.8717 167.561 92.0086 167.561C92.0086 167.561 80.5457 155.609 88.8824 136.208C97.2191 116.808 107.119 93.0773 107.64 81.8181C107.64 81.8181 129.003 55.3158 129.524 43.537C129.524 43.537 150.713 13.3971 169.991 22.9241" stroke="#76777E"/>
<path d="M213.064 152.665C213.064 152.665 211.327 175.01 203.338 189.213C195.349 203.417 192.222 203.937 192.222 203.937C192.222 203.937 200.906 228.014 196.043 233.038L194.48 230.439C194.48 230.439 191.875 248.627 182.844 249.666C182.844 249.666 182.844 246.202 182.844 244.123C182.844 244.123 179.544 244.643 178.502 244.297C177.46 244.123 181.107 235.982 176.417 228.88" stroke="#76777E"/>
<path d="M178.328 205.842C178.328 205.842 175.549 223.683 176.591 241.698" stroke="#76777E"/>
<path d="M70.9933 233.903C70.9933 233.903 49.1095 245.682 46.3306 248.453C43.5517 251.225 33.1309 261.098 33.6519 273.57C33.6519 273.57 47.199 289.16 71.8617 299.899C82.6299 304.576 95.3086 308.387 109.898 309.599C122.75 310.639 137.166 309.772 152.797 305.615C226.785 286.042 221.748 241.525 217.927 236.328C217.927 236.328 209.59 226.628 197.606 227.667" stroke="#76777E"/>
<path d="M64.7408 237.194C64.7408 237.194 18.3681 256.941 1 277.034" stroke="#76777E"/>
<path d="M197.433 224.896C197.433 224.896 224.527 224.377 240.506 234.25C256.484 244.123 261 256.942 261 256.942" stroke="#76777E"/>
<path d="M227.827 107.281L227.653 106.068C227.653 105.895 227.48 105.549 227.132 105.549C225.743 98.4467 221.575 96.0217 214.801 95.8485C207.506 95.6752 193.612 97.2342 191.007 109.706C191.007 109.706 191.007 110.052 189.617 108.493C188.228 106.934 187.359 106.588 183.886 106.934C180.586 107.281 176.765 108.147 174.681 111.438C174.681 111.438 173.291 97.9271 152.276 100.006C131.261 101.738 130.219 112.651 130.219 112.651C130.219 112.651 121.187 113.863 119.798 114.036C118.235 114.21 114.587 115.422 114.587 115.422L96.1771 117.501L95.6561 118.713C95.6561 118.713 113.893 116.288 114.587 116.288C114.587 116.288 117.192 117.154 120.666 116.808C124.14 116.461 129.524 115.768 129.524 115.768C129.524 115.768 128.134 138.287 147.239 143.31C166.344 148.333 177.286 124.083 175.028 113.17C175.028 113.17 175.897 109.533 180.933 107.974C185.97 106.415 187.881 107.627 188.749 108.667C189.444 109.879 190.833 110.745 190.833 110.745C190.833 110.745 189.617 136.555 206.291 137.421C221.922 138.287 228.001 116.635 227.48 107.627C227.653 107.8 227.827 107.454 227.827 107.281ZM165.128 137.247C156.444 147.294 142.724 141.578 138.903 138.114C132.65 132.224 130.392 122.351 130.566 115.942C131.608 115.768 131.434 114.902 131.434 114.902C131.434 114.902 131.434 114.383 131.434 113.69C131.434 112.997 131.087 112.824 131.087 112.824C131.261 112.304 131.434 111.784 131.608 111.265C135.255 104.336 145.85 100.525 153.665 100.525C161.481 100.525 171.381 101.911 173.639 110.572C175.897 119.06 173.639 127.201 165.128 137.247ZM222.096 126.335C216.364 137.94 207.333 138.46 201.254 135.515C195.175 132.571 189.791 117.501 192.57 107.281C195.349 97.061 213.585 94.4627 221.227 97.7538C224.18 98.9664 225.917 101.911 226.438 105.549C224.701 105.895 221.401 106.761 220.185 107.281C218.622 107.974 218.101 108.493 218.101 108.493L211.848 109.706V110.399L218.101 109.186H219.317L226.785 108.32C226.785 113.69 225.222 120.272 222.096 126.335Z" fill="url(#paint0_linear_47_224)"/>
<defs>
<linearGradient id="paint0_linear_47_224" x1="131.985" y1="123.624" x2="226.93" y2="115.968" gradientUnits="userSpaceOnUse">
<stop offset="0.2246" stop-color="#EF3F7C"/>
<stop offset="0.9822" stop-color="#FF009B"/>
</linearGradient>
</defs>
</svg>
