<svg width="159" height="48" viewBox="0 0 159 48" fill="none" xmlns="http://www.w3.org/2000/svg">
<path d="M22.3359 15.7329L17.8116 8.88541H8.02954L16.3443 20.8277L22.3359 15.7329Z" fill="white"/>
<path d="M24.6592 30.6914L29.1834 37.4573H38.9655L30.936 25.9226L24.6592 30.6914Z" fill="white"/>
<path d="M72.999 37.4573H97.5766V30.9359H81.2323V25.678H95.4979V20.0941H81.2323V15.4068H97.169V8.88541H72.999V37.4573Z" fill="white"/>
<path d="M121.828 8.88541L114.614 28.2051L107.359 8.88541H98.351L110.253 37.4573H118.486L130.428 8.88541H121.828Z" fill="white"/>
<path d="M152.805 20.4201L141.229 19.4012C139.884 19.2789 139.15 18.9121 139.15 17.2817V16.7519C139.15 15.203 139.721 14.6324 141.27 14.6324H148.403C149.911 14.6324 150.522 15.2438 150.522 16.7519V17.2817H158.47V15.203C158.47 10.8418 156.554 8.92617 152.275 8.92617H137.113C132.833 8.92617 130.917 10.8826 130.917 15.203V19.1159C130.917 23.314 132.548 24.9444 137.113 25.3927L148.688 26.4524C150.278 26.5747 150.767 27.0638 150.767 28.5719V29.6316C150.767 31.1805 150.196 31.7511 148.647 31.7511H140.536C139.028 31.7511 138.417 31.1397 138.417 29.6316V28.7349H130.469V31.2212C130.469 35.5824 132.385 37.4981 136.664 37.4981H152.805C157.084 37.4981 159 35.5416 159 31.2212V26.697C159 22.4988 157.329 20.787 152.805 20.4201Z" fill="white"/>
<path d="M60.2008 8.88541H40.9219V37.4573H60.2008C66.8037 37.4573 70.309 33.9521 70.309 27.3491V18.9936C70.309 12.3907 66.8037 8.88541 60.2008 8.88541ZM61.9126 26.7785C61.9126 29.1425 60.6491 30.406 58.2851 30.406H49.3182V15.8959H58.2851C60.6491 15.8959 61.9126 17.1594 61.9126 19.5234V26.7785Z" fill="white"/>
<path d="M43.3266 0L21.8467 22.7026L25.1482 24.2922L0 47.6878L32.1179 23.1102L28.4904 21.3168L43.3266 0Z" fill="url(#paint0_linear_47_518)"/>
<path d="M25.1482 24.2922L21.8467 22.7026L43.3266 0L15.4476 23.6809L19.0344 25.4335L0 47.6878L25.1482 24.2922Z" fill="url(#paint1_linear_47_518)"/>
<path d="M37.8244 5.54319L32.4035 11.1679C30.5693 13.0428 28.776 14.9177 26.9826 16.7926L21.6024 22.4581L21.2763 22.8249L21.7247 23.0287C22.6621 23.4771 23.5996 23.9254 24.537 24.3738L18.627 29.8762C16.5483 31.8326 14.4696 33.789 12.3909 35.7862L6.19559 41.6962C4.15765 43.6934 2.07895 45.6498 0.0410156 47.6878C2.20123 45.8129 4.32069 43.8564 6.44014 41.9815L12.7985 36.1938C14.918 34.2781 17.0374 32.3217 19.1161 30.3653L25.4337 24.5368L25.8413 24.17L25.3522 23.9254C24.4148 23.4771 23.4366 23.0287 22.4991 22.5804L27.5124 17.241C29.3058 15.3253 31.0584 13.4504 32.8518 11.5347L38.1505 5.78775C39.9031 3.87208 41.6557 1.95642 43.4084 0C41.4927 1.83415 39.6586 3.70905 37.8244 5.54319Z" fill="white"/>
<defs>
<linearGradient id="paint0_linear_47_518" x1="0.00558395" y1="23.8371" x2="43.3208" y2="23.8371" gradientUnits="userSpaceOnUse">
<stop stop-color="#ED4125"/>
<stop offset="0.5907" stop-color="#F79716"/>
<stop offset="1" stop-color="#FECE0C"/>
</linearGradient>
<linearGradient id="paint1_linear_47_518" x1="0.00558395" y1="23.8371" x2="43.3208" y2="23.8371" gradientUnits="userSpaceOnUse">
<stop stop-color="#FECE0C"/>
<stop offset="0.4093" stop-color="#F79716"/>
<stop offset="1" stop-color="#ED4125"/>
</linearGradient>
</defs>
</svg>
