<svg width="30" height="30" viewBox="0 0 30 30" fill="none" xmlns="http://www.w3.org/2000/svg">
<path d="M30 15.2003C30 13.233 27.5112 11.3685 23.6955 10.2123C24.5761 6.36234 24.1847 3.29933 22.4602 2.31868C22.0628 2.08865 21.598 1.97968 21.0905 1.97968V3.3296C21.3718 3.3296 21.598 3.38408 21.7876 3.48698C22.6193 3.95915 22.98 5.75701 22.6988 8.0694C22.6315 8.63842 22.5214 9.23773 22.3869 9.84915C21.1884 9.55856 19.8797 9.33459 18.5039 9.18932C17.6784 8.0694 16.8223 7.05246 15.9601 6.16261C17.9535 4.32841 19.8247 3.32355 21.0966 3.32355V1.97363C19.415 1.97363 17.2136 3.1601 14.9878 5.21826C12.7619 3.17221 10.5605 1.99785 8.8789 1.99785V3.34776C10.1447 3.34776 12.022 4.34657 14.0155 6.16867C13.1594 7.05852 12.3033 8.0694 11.49 9.18932C10.108 9.33459 8.7994 9.55856 7.6009 9.85515C7.46025 9.24984 7.35629 8.66265 7.2829 8.09969C6.99554 5.78727 7.35017 3.98942 8.17569 3.5112C8.35915 3.40224 8.59765 3.35381 8.8789 3.35381V2.0039C8.36527 2.0039 7.90056 2.11286 7.49694 2.34289C5.77864 3.32355 5.39339 6.38052 6.28004 10.2184C2.47656 11.3807 0 13.239 0 15.2003C0 17.1677 2.48879 19.0322 6.3045 20.1884C5.42397 24.0383 5.81533 27.1013 7.53975 28.082C7.93719 28.312 8.40196 28.421 8.9156 28.421C10.5972 28.421 12.7986 27.2346 15.0245 25.1764C17.2503 27.2224 19.4517 28.3968 21.1333 28.3968C21.647 28.3968 22.1117 28.2878 22.5153 28.0578C24.2336 27.0772 24.6188 24.0202 23.7321 20.1823C27.5234 19.0261 30 17.1617 30 15.2003ZM22.0383 11.1627C21.8121 11.9436 21.5308 12.7487 21.2128 13.5538C20.9621 13.0695 20.6991 12.5853 20.4118 12.101C20.1305 11.6167 19.8308 11.1446 19.5312 10.6845C20.3995 10.8116 21.2372 10.969 22.0383 11.1627ZM19.2377 17.6096C18.7607 18.4268 18.2715 19.2017 17.764 19.922C16.8528 20.0007 15.9295 20.0431 15 20.0431C14.0766 20.0431 13.1533 20.0007 12.2483 19.9281C11.7407 19.2077 11.2454 18.4389 10.7684 17.6277C10.3037 16.8348 9.88177 16.0297 9.49656 15.2185C9.87565 14.4074 10.3037 13.5962 10.7623 12.8032C11.2393 11.986 11.7285 11.2112 12.236 10.4908C13.1472 10.4121 14.0705 10.3697 15 10.3697C15.9234 10.3697 16.8467 10.4121 17.7517 10.4847C18.2593 11.2051 18.7546 11.9739 19.2316 12.7851C19.6963 13.578 20.1182 14.3831 20.5034 15.1943C20.1182 16.0054 19.6963 16.8166 19.2377 17.6096ZM21.2128 16.8227C21.543 17.6338 21.8243 18.445 22.0567 19.2319C21.2556 19.4256 20.4118 19.5891 19.5373 19.7162C19.8369 19.2501 20.1366 18.7718 20.4179 18.2815C20.6991 17.7972 20.9621 17.3069 21.2128 16.8227ZM15.0122 23.2817C14.4436 22.7005 13.8748 22.0528 13.3123 21.3446C13.8626 21.3687 14.4252 21.3869 14.9939 21.3869C15.5687 21.3869 16.1374 21.3748 16.6938 21.3446C16.1435 22.0528 15.5748 22.7005 15.0122 23.2817ZM10.4627 19.7162C9.59435 19.5891 8.7566 19.4317 7.95554 19.238C8.18181 18.4571 8.46312 17.652 8.78106 16.8469C9.03179 17.3312 9.29475 17.8154 9.58217 18.2997C9.86954 18.784 10.1631 19.2561 10.4627 19.7162ZM14.9817 7.11904C15.5503 7.70017 16.1191 8.34788 16.6816 9.05611C16.1313 9.03194 15.5687 9.01377 15 9.01377C14.4252 9.01377 13.8565 9.02588 13.3 9.05611C13.8504 8.34788 14.4191 7.70017 14.9817 7.11904ZM10.4566 10.6845C10.157 11.1506 9.85731 11.6288 9.57606 12.1192C9.29475 12.6034 9.03179 13.0877 8.78106 13.572C8.45088 12.7608 8.16958 11.9497 7.93719 11.1627C8.73831 10.9751 9.58217 10.8116 10.4566 10.6845ZM4.92254 18.2633C2.75785 17.3493 1.35752 16.1507 1.35752 15.2003C1.35752 14.25 2.75785 13.0453 4.92254 12.1373C5.44843 11.9133 6.02325 11.7136 6.61638 11.5259C6.96496 12.7124 7.42356 13.9473 7.99223 15.2125C7.42967 16.4715 6.97719 17.7004 6.63473 18.8808C6.02937 18.6932 5.45455 18.4874 4.92254 18.2633ZM8.21239 26.9137C7.38075 26.4415 7.02 24.6437 7.30125 22.3313C7.36852 21.7623 7.4786 21.163 7.61313 20.5515C8.81164 20.8421 10.1203 21.0661 11.4961 21.2114C12.3216 22.3313 13.1777 23.3482 14.0399 24.2381C12.0465 26.0723 10.1753 27.0772 8.90337 27.0772C8.62823 27.0711 8.39585 27.0166 8.21239 26.9137ZM22.7171 22.301C23.0045 24.6134 22.6498 26.4113 21.8243 26.8895C21.6408 26.9984 21.4023 27.0469 21.1211 27.0469C19.8553 27.0469 17.978 26.0481 15.9845 24.226C16.8406 23.3361 17.6967 22.3252 18.51 21.2053C19.892 21.06 21.2006 20.8361 22.3991 20.5395C22.5397 21.1508 22.6498 21.738 22.7171 22.301ZM25.0713 18.2633C24.5455 18.4874 23.9706 18.6871 23.3775 18.8748C23.0289 17.6883 22.5703 16.4534 22.0017 15.1882C22.5642 13.9292 23.0167 12.7003 23.3592 11.5199C23.9645 11.7075 24.5394 11.9133 25.0775 12.1373C27.2421 13.0514 28.6425 14.25 28.6425 15.2003C28.6364 16.1507 27.236 17.3554 25.0713 18.2633Z" fill="#61DAFB"/>
<path d="M14.9938 17.9669C16.5372 17.9669 17.7883 16.7284 17.7883 15.2005C17.7883 13.6727 16.5372 12.4341 14.9938 12.4341C13.4504 12.4341 12.1992 13.6727 12.1992 15.2005C12.1992 16.7284 13.4504 17.9669 14.9938 17.9669Z" fill="#61DAFB"/>
</svg>
