<svg width="30" height="30" viewBox="0 0 30 30" fill="none" xmlns="http://www.w3.org/2000/svg">
<g clip-path="url(#clip0_222_64)">
<path d="M14.8956 0.53833C7.553 0.538331 8.01152 3.73918 8.01152 3.73918L8.0197 7.05525H15.0265V8.05084H5.2366C5.2366 8.05084 0.538086 7.5152 0.538086 14.9627C0.538085 22.4102 4.63905 22.1461 4.63905 22.1461H7.0865V18.6902C7.0865 18.6902 6.95463 14.5677 11.122 14.5677C15.2894 14.5677 18.0715 14.5677 18.0715 14.5677C18.0715 14.5677 21.976 14.6312 21.976 10.7744C21.976 6.91773 21.976 4.39745 21.976 4.39745C21.976 4.39745 22.5689 0.53833 14.8956 0.53833ZM11.032 2.76823C11.7291 2.76823 12.2925 3.33462 12.2925 4.0354C12.2925 4.73618 11.7291 5.30258 11.032 5.30258C10.3348 5.30258 9.77136 4.73618 9.77136 4.0354C9.77136 3.33462 10.3348 2.76823 11.032 2.76823Z" fill="url(#paint0_linear_222_64)"/>
<path d="M15.1039 29.462C22.4464 29.462 21.9879 26.2611 21.9879 26.2611L21.9797 22.9451H14.9729V21.9494H24.7628C24.7628 21.9494 29.4613 22.485 29.4613 15.0375C29.4613 7.59005 25.3603 7.85419 25.3603 7.85419H22.9129V11.3101C22.9129 11.3101 23.0448 15.4325 18.8774 15.4325C14.71 15.4325 11.9278 15.4325 11.9278 15.4325C11.9278 15.4325 8.02331 15.369 8.02331 19.2258C8.02331 23.0825 8.02331 25.6028 8.02331 25.6028C8.02331 25.6028 7.43054 29.462 15.1039 29.462ZM18.9674 27.2321C18.2703 27.2321 17.7068 26.6657 17.7068 25.9648C17.7068 25.2641 18.2703 24.6977 18.9674 24.6977C19.6645 24.6977 20.228 25.2641 20.228 25.9648C20.228 26.6657 19.6645 27.2321 18.9674 27.2321Z" fill="url(#paint1_linear_222_64)"/>
</g>
<defs>
<linearGradient id="paint0_linear_222_64" x1="3.31769" y1="3.0665" x2="17.6944" y2="17.4162" gradientUnits="userSpaceOnUse">
<stop stop-color="#387EB8"/>
<stop offset="1" stop-color="#366994"/>
</linearGradient>
<linearGradient id="paint1_linear_222_64" x1="12.1153" y1="12.243" x2="27.5522" y2="26.9554" gradientUnits="userSpaceOnUse">
<stop stop-color="#FFE052"/>
<stop offset="1" stop-color="#FFC331"/>
</linearGradient>
<clipPath id="clip0_222_64">
<rect width="30" height="30" fill="white"/>
</clipPath>
</defs>
</svg>
