<svg width="52" height="53" viewBox="0 0 52 53" fill="none" xmlns="http://www.w3.org/2000/svg">
<path d="M52 27.0381C52 23.628 47.6861 20.3963 41.0722 18.3922C42.5985 11.7189 41.9201 6.40969 38.9311 4.7099C38.2422 4.31118 37.4366 4.12231 36.5569 4.12231V6.46216C37.0444 6.46216 37.4366 6.55659 37.7652 6.73496C39.2067 7.55339 39.832 10.6697 39.3445 14.6778C39.2279 15.6641 39.0371 16.7029 38.8039 17.7627C36.7265 17.259 34.4582 16.8708 32.0734 16.619C30.6425 14.6778 29.1586 12.9151 27.6641 11.3727C31.1194 8.19343 34.3628 6.45167 36.5675 6.45167V4.11182C33.6527 4.11182 29.8369 6.16837 25.9788 9.73584C22.1207 6.18935 18.3049 4.15379 15.3901 4.15379V6.49364C17.5842 6.49364 20.8382 8.22491 24.2935 11.3832C22.8096 12.9256 21.3257 14.6778 19.916 16.619C17.5206 16.8708 15.2523 17.259 13.1749 17.7731C12.9311 16.7239 12.7509 15.7061 12.6237 14.7303C12.1256 10.7221 12.7403 7.60585 14.1712 6.77694C14.4892 6.58807 14.9026 6.50413 15.3901 6.50413V4.16428C14.4998 4.16428 13.6943 4.35315 12.9947 4.75187C10.0163 6.45167 9.34855 11.7504 10.8854 18.4027C4.2927 20.4173 0 23.6385 0 27.0381C0 30.4482 4.3139 33.6799 10.9278 35.684C9.40155 42.3573 10.0799 47.6665 13.0689 49.3663C13.7578 49.765 14.5634 49.9539 15.4537 49.9539C18.3685 49.9539 22.1843 47.8974 26.0424 44.3299C29.9005 47.8764 33.7163 49.9119 36.6311 49.9119C37.5214 49.9119 38.327 49.7231 39.0265 49.3243C42.0049 47.6246 42.6726 42.3258 41.1357 35.6735C47.7073 33.6694 52 30.4377 52 27.0381ZM38.1998 20.0395C37.8076 21.3931 37.32 22.7886 36.7689 24.1841C36.3343 23.3447 35.8785 22.5053 35.3804 21.6659C34.8928 20.8265 34.3734 20.0081 33.8541 19.2106C35.3592 19.431 36.8112 19.7038 38.1998 20.0395ZM33.3453 31.2141C32.5185 32.6306 31.6706 33.9737 30.7909 35.2223C29.2116 35.3587 27.6111 35.4322 26 35.4322C24.3995 35.4322 22.799 35.3587 21.2303 35.2328C20.3506 33.9842 19.4921 32.6516 18.6653 31.2456C17.8598 29.8711 17.1284 28.4756 16.4607 27.0696C17.1178 25.6636 17.8598 24.2576 18.6547 22.883C19.4815 21.4665 20.3294 20.1235 21.2091 18.8749C22.7884 18.7385 24.3889 18.665 26 18.665C27.6005 18.665 29.201 18.7385 30.7697 18.8644C31.6494 20.113 32.5079 21.4456 33.3347 22.8516C34.1402 24.2261 34.8716 25.6216 35.5393 27.0276C34.8716 28.4336 34.1402 29.8396 33.3453 31.2141ZM36.7689 29.8501C37.3412 31.2561 37.8288 32.6621 38.2316 34.0262C36.8431 34.3619 35.3804 34.6452 33.8647 34.8656C34.384 34.0576 34.9034 33.2287 35.391 32.3788C35.8785 31.5394 36.3343 30.6895 36.7689 29.8501ZM26.0212 41.0457C25.0355 40.0384 24.0497 38.9157 23.0746 37.6881C24.0285 37.73 25.0037 37.7615 25.9894 37.7615C26.9857 37.7615 27.9715 37.7405 28.936 37.6881C27.9821 38.9157 26.9963 40.0384 26.0212 41.0457ZM18.1353 34.8656C16.6302 34.6452 15.1781 34.3724 13.7896 34.0367C14.1818 32.6831 14.6694 31.2876 15.2205 29.8921C15.6551 30.7315 16.1109 31.5709 16.6091 32.4103C17.1072 33.2497 17.616 34.0681 18.1353 34.8656ZM25.9682 13.0305C26.9539 14.0378 27.9397 15.1605 28.9148 16.3881C27.9609 16.3462 26.9857 16.3147 26 16.3147C25.0037 16.3147 24.0179 16.3357 23.0534 16.3881C24.0073 15.1605 24.9931 14.0378 25.9682 13.0305ZM18.1247 19.2106C17.6054 20.0186 17.086 20.8475 16.5985 21.6974C16.1109 22.5368 15.6551 23.3762 15.2205 24.2156C14.6482 22.8096 14.1606 21.4036 13.7578 20.0395C15.1464 19.7143 16.6091 19.431 18.1247 19.2106ZM8.53241 32.3473C4.78027 30.763 2.35304 28.6854 2.35304 27.0381C2.35304 25.3908 4.78027 23.3027 8.53241 21.7288C9.44395 21.3406 10.4403 20.9944 11.4684 20.6691C12.0726 22.7256 12.8675 24.8661 13.8532 27.0591C12.8781 29.2415 12.0938 31.3715 11.5002 33.4176C10.4509 33.0923 9.45455 32.7356 8.53241 32.3473ZM14.2348 47.3413C12.7933 46.5228 12.168 43.4065 12.6555 39.3984C12.7721 38.4121 12.9629 37.3733 13.1961 36.3135C15.2735 36.8172 17.5418 37.2054 19.9266 37.4572C21.3575 39.3984 22.8414 41.1611 24.3359 42.7035C20.8806 45.8828 17.6372 47.6246 15.4325 47.6246C14.9556 47.6141 14.5528 47.5196 14.2348 47.3413ZM39.3763 39.3459C39.8744 43.3541 39.2597 46.4704 37.8288 47.2993C37.5108 47.4881 37.0974 47.5721 36.6099 47.5721C34.4158 47.5721 31.1618 45.8408 27.7065 42.6825C29.1904 41.1401 30.6743 39.3879 32.084 37.4467C34.4794 37.1949 36.7477 36.8067 38.8251 36.2926C39.0689 37.3523 39.2597 38.3701 39.3763 39.3459ZM43.457 32.3473C42.5455 32.7356 41.5491 33.0818 40.521 33.4071C39.9168 31.3506 39.1219 29.2101 38.1362 27.0171C39.1113 24.8347 39.8956 22.7047 40.4892 20.6586C41.5385 20.9839 42.5349 21.3406 43.4676 21.7288C47.2197 23.3132 49.647 25.3908 49.647 27.0381C49.6364 28.6854 47.2091 30.7735 43.457 32.3473Z" fill="#61DAFB"/>
<path d="M25.9894 31.8335C28.6646 31.8335 30.8332 29.6866 30.8332 27.0384C30.8332 24.3901 28.6646 22.2432 25.9894 22.2432C23.3142 22.2432 21.1455 24.3901 21.1455 27.0384C21.1455 29.6866 23.3142 31.8335 25.9894 31.8335Z" fill="#61DAFB"/>
</svg>
