<svg width="204" height="250" viewBox="0 0 204 250" fill="none" xmlns="http://www.w3.org/2000/svg">
<path d="M174.954 39.1635C182.499 43.5783 187.766 65.3673 189.474 68.9277C191.182 72.488 192.036 76.3331 192.178 80.3207C192.178 84.3083 188.477 88.8655 188.477 88.8655C188.477 88.8655 187.623 89.0081 188.335 89.4354C189.758 90.4323 191.609 90.5745 193.175 90.0049C193.175 90.0049 193.317 91.7138 189.189 91.0017C189.189 91.0017 187.196 90.1474 186.911 91.1443C186.769 91.9987 186.484 92.9957 185.915 93.7078C185.915 93.7078 187.338 99.9737 188.335 102.395C189.331 104.816 190.755 109.8 189.901 113.076C189.901 113.076 191.751 117.918 191.751 118.488C191.751 119.912 191.467 121.336 190.613 122.475C189.474 123.899 187.765 123.329 187.481 126.605C186.911 130.877 185.773 135.15 184.064 138.995C182.641 141.701 180.648 147.255 180.648 149.961C180.648 152.667 181.644 164.772 172.249 167.905C162.711 171.038 151.608 166.766 137.943 161.211" stroke="#76777E" stroke-miterlimit="10"/>
<path d="M103.778 127.602C103.494 130.023 101.928 132.017 99.5078 132.729C92.6749 134.865 89.2582 130.023 89.2582 130.023" stroke="#76777E" stroke-miterlimit="10"/>
<path d="M148.619 166.054C146.199 167.62 144.348 169.899 143.21 172.605C141.359 176.877 137.373 184.995 135.807 188.697C134.242 192.258 134.526 201.087 134.526 201.087" stroke="#76777E" stroke-miterlimit="10"/>
<path d="M138.512 182.716C138.512 182.716 142.783 200.803 134.384 207.639C134.384 207.639 117.871 209.917 109.045 205.787" stroke="#76777E" stroke-miterlimit="10"/>
<path d="M39.7199 182.716C33.1717 188.27 26.1964 193.54 18.9364 198.382C10.253 203.936 2.42352 218.035 1 222.307" stroke="#76777E" stroke-miterlimit="10"/>
<path d="M18.6516 228.836C18.6516 228.836 42.5665 235.957 50.5382 249.202" stroke="#76777E" stroke-miterlimit="10"/>
<path d="M103.778 125.893C103.778 125.893 109.615 141.559 112.319 142.698" stroke="#76777E" stroke-miterlimit="10"/>
<path d="M190.057 249.87H185.504C185.361 249.353 185.361 249.094 185.361 248.964L184.935 249.87H183.512C184.081 248.705 184.508 247.799 184.508 247.67L178.247 241.196C178.674 244.044 178.817 247.022 178.674 250H178.105V247.022C177.963 246.763 172.272 239.643 172.272 239.643C172.841 243.268 176.682 248.576 177.963 250H176.683C173.695 246.116 167.861 238.736 167.861 238.607C167.435 242.491 168.146 246.375 169.711 250H168.857C167.719 247.152 166.723 244.174 166.154 241.196C166.438 244.174 167.008 247.152 167.861 250H165.869C164.162 244.174 163.166 238.218 162.597 232.134C161.316 230.451 160.463 228.508 160.321 226.437C160.036 223.848 159.894 221.388 160.036 218.798C160.178 215.562 160.605 212.325 161.174 209.218C161.032 208.7 154.203 197.566 152.78 195.365V195.236C156.194 204.169 155.199 210.383 153.918 219.057C153.491 221.388 153.207 223.718 152.78 226.437C152.211 231.357 152.922 236.147 154.629 240.808C155.768 243.915 157.19 247.022 158.898 250H158.755C156.621 246.763 154.914 243.268 153.776 239.513C151.784 233.299 151.499 226.696 152.637 220.352C153.776 214.655 154.06 208.7 153.491 202.874C153.064 199.767 152.211 196.66 151.072 193.682C150.788 192.776 150.361 191.87 150.077 191.093C148.654 186.302 140.117 166.494 139.975 166.235L139.406 165.199C140.117 163.775 143.532 156.913 144.528 155.23C145.808 153.547 147.231 152.123 148.938 150.829C148.938 150.829 152.211 152.512 160.747 153.677C162.455 153.936 164.162 154.065 165.869 154.065C168.43 154.195 171.134 153.677 173.41 152.641C173.41 152.77 174.122 162.61 177.109 167.53C178.959 171.155 180.097 175.039 180.382 179.052C180.951 176.463 181.093 171.414 178.817 161.963C177.394 156.266 175.687 151.735 175.687 151.605C178.675 150.181 180.239 144.744 180.382 144.744C180.097 146.686 180.809 151.735 182.374 157.82C183.796 163.516 185.646 169.083 188.207 174.521C192.618 183.454 193.471 191.74 192.191 194.329C191.195 196.53 188.349 202.874 187.78 204.039C189.061 206.629 203.431 214.138 204 214.397C200.728 214.267 188.207 205.464 188.065 205.334C189.061 208.053 190.341 210.772 191.764 213.361C194.04 217.763 196.886 223.2 198.736 227.861C201.297 234.334 201.439 244.562 201.154 250H194.467C193.898 249.353 193.614 248.835 193.614 248.835V250H191.906C190.768 247.929 189.203 246.116 187.353 244.692C187.211 246.634 188.207 248.576 190.057 249.87ZM169.853 222.682C169.995 228.12 171.418 233.299 173.837 238.218C174.975 240.419 176.256 242.62 177.821 244.562C177.821 242.62 177.536 240.808 177.109 238.866C175.971 237.701 173.979 233.428 172.699 230.192C171.134 226.437 169.995 222.941 169.853 222.682ZM188.065 210.772C187.78 210.772 187.496 210.772 187.496 211.03C187.353 211.548 188.065 212.584 189.915 214.138C191.195 215.303 193.329 218.41 196.317 226.825C198.024 231.745 199.305 236.276 199.305 236.535C199.305 231.357 196.317 224.754 193.898 220.093C192.333 216.856 190.483 213.749 188.349 210.901C188.349 210.771 188.207 210.772 188.065 210.772ZM187.638 212.843C187.922 214.396 188.492 215.821 189.345 217.115C190.626 219.316 196.175 232.263 196.175 232.392C196.175 227.861 187.78 213.102 187.638 212.843ZM162.455 214.656C161.743 216.08 161.174 217.504 160.89 219.057C160.178 222.682 160.747 226.437 162.455 229.803V229.674C162.455 226.696 162.597 223.718 162.882 220.74C162.882 220.611 162.882 220.352 162.739 220.093C162.597 218.41 162.455 216.598 162.455 214.656ZM183.512 207.146C182.658 207.664 182.943 208.959 182.943 209.088C183.654 209.606 186.073 215.432 186.215 215.691C185.931 213.749 185.504 211.937 184.792 210.124C184.366 209.218 183.939 208.182 183.512 207.146ZM186.215 180.865C186.215 181.641 185.504 200.026 184.792 201.062L184.935 201.191C185.931 202.615 186.357 203.392 186.5 203.521C186.926 201.45 187.211 199.508 187.496 197.436C187.496 197.178 187.638 196.66 187.638 195.883C188.065 191.611 189.203 182.03 186.215 180.865ZM184.223 169.731C184.223 169.86 190.057 183.583 190.057 189.539C190.057 192.776 189.488 195.883 188.492 198.99C188.207 199.767 188.065 200.544 188.065 201.32C188.065 201.32 189.488 197.954 189.772 196.789C189.914 196.53 189.914 196.271 190.057 195.883C191.195 193.423 191.479 190.834 191.052 188.244L190.768 186.302C190.341 182.677 190.057 179.7 184.223 169.731ZM183.512 180.217C183.37 180.606 181.662 190.186 181.804 192.646C182.089 194.588 182.516 196.66 183.227 198.472C183.369 198.213 185.077 182.677 183.512 180.217ZM22.7376 249.87H20.6034C19.1806 247.54 17.6155 245.339 15.9082 243.268C11.3553 238.089 8.08267 232.134 6.09077 225.66C5.09483 222.294 4.81055 218.928 4.95283 215.432C5.23738 211.937 6.37547 208.441 8.36737 205.463C12.3512 199.378 18.3267 194.588 25.2983 191.61C31.1317 189.021 37.5344 187.208 43.9369 186.302C46.7825 186.173 49.4857 184.749 51.3353 182.677C52.4735 180.994 52.9006 179.052 52.616 177.11C50.055 176.333 47.6362 175.427 45.3597 174.262C43.3678 173.226 41.6603 172.061 40.2375 170.507C38.6725 168.954 37.8191 167.141 37.6768 165.07C37.5345 161.186 38.5305 157.302 40.5224 153.806C41.5183 151.994 42.5141 150.44 43.9369 148.887C43.7946 148.369 39.3839 136.458 39.9531 131.15C40.3799 128.172 41.0914 125.324 41.8027 122.346C43.7946 114.578 46.6403 102.796 47.2094 91.1443C47.2094 90.1086 47.3515 89.2024 47.3515 88.2961C47.3515 83.1175 47.9208 77.9389 48.6322 72.8897C49.6281 68.7468 51.1933 64.7333 53.3274 60.8493L53.754 60.0723C59.4451 48.8088 68.978 30.0364 73.5309 26.0229C74.2423 25.505 74.8114 24.8576 75.3806 24.3398C78.5107 21.621 81.0716 19.1611 85.6245 19.1611C86.905 19.1611 88.3279 19.4199 89.6084 19.6789C89.7507 19.4199 93.4496 13.4645 98.5716 10.6162C102.271 8.2858 106.539 6.86173 110.95 6.47333C112.657 5.30813 114.792 4.66092 116.926 4.66092C117.353 4.66092 117.637 4.66073 118.064 4.7902C118.633 4.91966 119.344 5.04907 119.913 5.04907C121.194 5.04907 122.474 4.6608 123.47 3.884C124.466 2.84826 124.893 1.42413 124.609 0C124.751 1.03573 124.751 2.20093 124.609 3.23666C125.747 1.942 127.17 1.03561 128.877 0.51774C129.588 0.258807 130.442 0.129593 131.154 0.129593C134.426 0.388526 137.556 1.03586 140.686 2.07159C142.251 1.81266 143.674 1.81241 145.239 1.81241C151.357 1.68294 157.19 3.23673 162.312 6.21446C169.426 10.6163 173.695 17.9959 174.69 28.2238C177.394 28.7416 179.955 30.1658 181.662 32.1078C183.37 34.3087 183.796 37.1568 182.658 39.7462C182.658 39.7462 183.085 36.2505 181.093 34.179C180.097 33.1433 178.674 32.6256 177.252 32.7551C176.825 32.7551 176.398 32.7549 175.971 32.8844C176.683 33.6612 182.516 40.5231 181.804 44.4071C181.804 44.2776 177.536 37.5453 175.544 36.2506C173.695 35.0854 167.577 31.5899 167.292 31.4604C167.577 31.7194 168.288 32.4962 168.288 32.7551C168.288 32.8846 168.146 32.8844 168.003 32.8844H167.861C167.577 32.8844 167.292 32.4962 166.723 32.1078C165.016 30.2952 162.455 29.13 159.894 28.8711C158.755 28.7416 157.902 28.6121 157.048 28.4826C156.052 28.3532 155.483 28.2238 155.198 28.2238H154.914V28.7415C154.914 28.871 154.772 28.8711 154.629 28.8711C154.203 28.8711 153.776 28.7417 153.349 28.6122L152.353 28.353C150.93 27.9646 149.507 27.8353 148.085 27.8353C147.089 27.8353 145.95 27.9647 144.954 28.0942C143.959 28.3531 142.962 28.353 141.966 28.353C141.113 28.353 140.402 28.3532 139.69 28.2238H139.406C138.837 28.2238 138.41 28.0942 137.983 28.0942C137.556 28.0942 137.129 28.2237 136.845 28.4826C136.56 28.7416 136.56 29.3888 136.845 30.295C137.556 32.7549 137.556 35.3443 136.987 37.8042C136.133 41.2998 134.284 44.666 131.58 47.2553C127.17 51.9161 123.328 56.9654 119.913 62.2735C119.06 63.4387 118.491 64.4744 117.922 65.1217C115.93 67.8405 114.934 68.6173 111.092 71.8539L110.95 71.9835C110.381 72.5014 109.669 73.019 108.958 73.6663C106.682 75.6083 102.556 80.0104 100.279 88.8142C97.7182 98.5242 98.1448 110.694 101.417 124.935C104.12 136.717 106.539 145.52 108.389 152.512C111.804 164.811 113.369 171.025 112.088 176.333C111.946 176.722 111.946 177.11 111.804 177.628C109.527 185.655 108.673 193.812 108.958 202.097C109.812 214.785 114.934 225.401 124.182 233.299C130.869 237.959 136.844 243.397 141.966 249.482H136.275C134.71 248.317 132.861 247.152 131.011 245.986C131.865 247.022 132.576 248.187 133.003 249.482H131.011C130.015 246.116 128.166 242.879 125.889 240.031C123.613 237.183 120.198 235.37 116.356 234.852L122.332 249.482H86.1935C85.9089 249.223 85.7668 248.964 85.6245 248.835V249.482H71.6812C70.6852 245.598 69.4046 238.995 67.9818 232.004V231.875C65.1362 217.763 62.0063 201.709 59.5875 196.789V196.919C59.0184 200.414 55.8883 218.022 53.8964 220.223C55.0346 216.468 56.0306 212.713 56.742 208.959C57.7379 203.133 58.5916 194.977 56.742 189.021C54.3232 188.762 51.7623 188.633 49.3436 188.633C44.2215 188.633 39.0996 189.151 34.1199 190.316C28.0019 191.61 22.453 194.329 17.7579 198.084C2.5341 210.383 7.37149 223.718 11.6398 230.58C12.7781 232.522 17.9001 240.937 22.7376 249.87ZM73.2464 220.223C73.1041 222.942 73.2463 225.66 73.5309 228.379C74.1 232.392 75.3803 237.959 78.6527 241.067L73.2464 220.223ZM113.653 226.308C113.796 226.437 121.479 235.629 123.328 236.535C122.475 235.111 121.621 233.817 120.625 232.522C118.775 230.062 116.357 227.861 113.653 226.308ZM84.2017 216.727C84.344 216.986 86.9048 224.107 88.6122 226.308C88.6122 226.308 89.6082 221.388 87.3318 218.54C86.7627 217.633 85.4822 216.986 84.2017 216.727ZM50.6239 117.297C48.632 119.239 47.2092 121.569 46.3556 124.158C45.5019 126.877 45.0751 129.725 45.3597 132.574C45.7865 136.587 46.9248 140.471 48.9167 144.226C48.7744 142.284 48.2053 132.444 49.628 127.783C50.4817 124.288 50.9085 120.792 50.6239 117.297Z" fill="url(#paint0_linear_47_325)"/>
<defs>
<linearGradient id="paint0_linear_47_325" x1="59.9626" y1="41.1295" x2="162.25" y2="187.103" gradientUnits="userSpaceOnUse">
<stop stop-color="#EF3F7C"/>
<stop offset="1" stop-color="#FF009B"/>
</linearGradient>
</defs>
</svg>
