<svg width="218" height="252" viewBox="0 0 218 252" fill="none" xmlns="http://www.w3.org/2000/svg">
<g opacity="0.8">
<path opacity="0.8" d="M109.349 195.055C122.212 207.814 155.485 213.703 166.39 205.851C177.295 197.999 170.165 193.793 178.553 167.152C186.942 140.512 183.866 121.163 182.887 114.853C181.769 108.543 185.823 100.411 189.318 96.9059C192.813 93.4006 192.114 88.0722 191.415 84.7071C190.716 81.342 187.92 69.7044 187.92 69.7044C188.48 49.3735 184.705 44.1857 184.705 44.1857C186.103 40.6804 188.2 38.8577 189.039 34.5111C186.942 27.9211 155.905 1 123.47 1C58.7399 1 56.6426 22.5928 44.6193 37.4554C44.6193 37.4554 37.4893 32.6883 29.3806 37.5957C27.4233 38.7174 18.8952 54.0007 21.4117 62.5537C24.0681 71.1067 30.3593 70.2653 31.1981 70.8262C31.1981 70.8262 24.6271 84.0062 15.6796 89.7549C15.6796 89.7549 34.6932 91.2973 37.769 70.5458C37.769 70.5458 38.1882 80.7814 41.1242 85.6889L41.6836 75.0326C41.6836 75.0326 46.1574 90.0355 47.2758 95.5038" stroke="#76777E"/>
<path opacity="0.8" d="M76.495 159.16C74.9571 155.935 74.3979 137.007 74.3979 137.007C74.3979 137.007 76.495 140.372 71.6018 141.353C66.7086 142.195 53.0075 132.239 48.1143 122.705C43.2211 113.17 42.662 92.6993 52.4484 92.5591C62.2348 92.4189 64.6115 98.308 64.6115 98.308" stroke="#76777E"/>
<path opacity="0.8" d="M58.7399 134.903C58.7399 134.903 59.5787 145.559 61.536 149.906" stroke="#76777E"/>
<path opacity="0.8" d="M63.0737 137.708C63.0737 137.708 60.2778 170.097 56.6428 175.005C56.6428 175.005 69.2253 235.577 89.4972 251" stroke="#76777E"/>
<path opacity="0.8" d="M143.602 209.356C143.602 209.356 129.761 222.396 139.268 247.354" stroke="#76777E"/>
<path opacity="0.8" d="M172.821 196.457C172.821 196.457 191.835 202.065 194.212 203.608C196.588 205.15 210.429 220.714 217 238.661" stroke="#76777E"/>
<path opacity="0.8" d="M61.536 152.71C61.536 152.71 40.0058 153.692 38.0485 197.859L1 224.359" stroke="#76777E"/>
</g>
<path d="M100.122 176.967C89.6367 174.724 88.3786 163.227 84.8835 148.785C84.4641 145.139 80.1302 142.054 78.7322 138.689C76.9147 134.202 77.7534 129.575 74.398 125.93L72.161 126.631L72.301 141.774C72.5806 154.253 76.6351 166.031 81.5283 173.462C86.4215 180.893 103.198 193.933 113.404 200.243C119.835 204.169 121.653 204.729 122.072 204.589C126.266 212.441 133.116 218.33 141.505 221.415L143.602 217.489C143.602 217.489 150.033 223.238 150.872 224.92C150.872 224.92 155.206 222.817 155.206 221.555L157.303 223.518L165.132 217.208L167.229 217.629C167.229 217.629 178.414 205.711 173.66 193.933L172.262 192.531C172.262 192.531 163.175 196.597 160.658 190.708C155.765 187.764 149.474 189.306 144.86 190.708C143.602 194.774 138.01 193.933 131.578 192.952C128.083 192.812 125.847 191.69 122.631 193.092C122.631 193.092 116.34 179.912 117.179 175.425C117.039 175.425 103.198 177.668 100.122 176.967Z" fill="url(#paint0_linear_47_374)"/>
<defs>
<linearGradient id="paint0_linear_47_374" x1="72.2072" y1="131.767" x2="158.67" y2="219.525" gradientUnits="userSpaceOnUse">
<stop stop-color="#4663FF"/>
<stop offset="1" stop-color="#17A8D3"/>
</linearGradient>
</defs>
</svg>
