<svg width="204" height="251" viewBox="0 0 204 251" fill="none" xmlns="http://www.w3.org/2000/svg">
<path d="M61.1661 140.988C69.666 155.883 76.4992 144 76.4992 144L76.3326 153.373C76.4992 170.109 91.9991 177.139 91.9991 177.139" stroke="#76777E"/>
<path d="M184.165 60.9858C184.165 60.9858 189.498 83.413 189.831 84.9193C190.165 86.4256 190.165 92.2835 188.331 95.6308C186.498 98.9781 182.831 104.501 182.831 104.501C182.831 104.501 192.665 122.577 193.498 124.418C194.498 126.092 196.164 128.435 195.831 131.447C195.331 134.46 190.998 137.807 187.331 138.811C187.331 138.811 188.831 152.703 187.498 156.887C186.331 160.904 180.998 172.118 180.498 175.297C179.998 178.645 180.998 183.833 179.331 192.034C177.665 200.235 173.165 202.746 164.665 203.75C160.498 204.252 146.832 202.746 142.665 202.076C133.332 200.403 122.499 194.879 115.665 190.528" stroke="#76777E"/>
<path d="M134.499 217.976C134.499 217.976 142.165 202.579 148.998 202.913" stroke="#76777E"/>
<path d="M65.3327 147.18C65.3327 147.18 69.4993 167.933 65.8327 176.302" stroke="#76777E"/>
<path d="M142.998 206.428C142.998 206.428 147.832 228.186 122.165 243.918C96.4989 259.651 63.666 241.742 50.6661 225.508C37.6663 209.273 37.9996 198.394 38.4996 193.373C38.4996 193.373 38.3329 191.365 35.9996 191.867C33.833 192.369 22.1664 198.562 20.8331 199.398C20.3331 199.901 12.9999 204.085 4.83331 208.938" stroke="#76777E"/>
<path d="M176.165 200.236C176.165 200.236 199.164 211.951 202.831 233.709" stroke="#76777E"/>
<path d="M24.9997 205.424C24.9997 205.424 25.6664 222.662 41.3328 237.893" stroke="#76777E"/>
<path d="M151.498 210.445C151.498 210.445 153.665 228.855 141.999 243.918" stroke="#76777E"/>
<path d="M189.998 53.622C190.831 49.6052 188.498 45.9231 189.331 43.2452C190.331 40.2326 184.665 38.0569 184.665 38.0569C185.831 33.8727 178.998 29.1864 178.998 29.1864C177.831 26.0064 172.831 22.9938 172.831 22.9938C170.331 17.6381 160.165 13.1192 160.165 13.1192C154.332 3.57925 138.498 6.75922 138.498 6.75922C134.332 4.75082 128.332 4.75082 128.332 4.75082C128.332 4.75082 126.165 1.06874 117.665 0.0645423C109.165 -0.93966 86.499 10.1066 86.499 10.1066C70.6659 13.2865 60.3326 21.1528 57.9993 22.3244C55.4994 23.4959 46.3328 30.8601 35.9996 57.1367C25.833 83.4133 32.6663 109.857 32.6663 109.857C31.9996 112.368 32.4996 113.205 32.833 119.899C33.333 126.594 24.3331 131.95 14.8332 135.297C5.33327 138.644 0 128.602 0 128.602C5.83327 148.184 22.6664 142.159 22.6664 142.159C17.3331 160.402 29.9997 170.277 29.9997 170.277C29.1663 173.791 17.4998 164.921 17.4998 164.921C23.3331 176.971 29.9997 174.796 29.9997 174.796L32.9996 182.16C32.333 187.181 24.4997 179.649 24.4997 179.649C24.9997 190.361 33.333 189.691 33.333 189.691C32.833 192.202 27.6663 194.043 27.6663 194.043C31.9996 199.231 38.6662 193.373 38.6662 193.373C35.4996 198.06 21.1664 199.566 21.1664 199.566C54.4994 208.102 60.9993 192.704 60.9993 192.704L64.3326 194.712C62.8326 192.704 59.166 182.997 59.166 182.997C63.3326 182.829 70.6659 192.871 70.6659 192.871L66.8326 182.997C70.1659 165.758 65.6659 147.18 65.6659 147.18L62.166 141.322C64.1659 127.096 74.9991 120.736 74.9991 120.736C88.3323 117.556 117.665 94.6269 129.165 85.4217C116.832 97.8069 110.499 123.414 104.832 132.452C100.666 139.314 96.1656 139.649 93.6656 139.147C114.165 145.674 122.165 111.029 130.999 99.9826C139.998 88.4343 155.332 78.2249 155.332 78.2249C155.332 78.2249 174.331 68.0155 184.165 60.9861L188.831 77.2207C192.831 77.2207 194.998 70.526 191.498 62.1577C199.164 69.8566 202.164 80.2333 200.498 83.2459C198.831 86.4259 190.664 90.2754 190.664 90.2754C189.498 96.4679 187.498 98.4763 187.498 98.4763C187.498 98.4763 192.164 96.6353 200.164 89.9406C209.831 81.4049 191.831 56.6346 189.998 53.622Z" fill="url(#paint0_linear_47_339)"/>
<defs>
<linearGradient id="paint0_linear_47_339" x1="-0.290345" y1="101.104" x2="202.71" y2="101.104" gradientUnits="userSpaceOnUse">
<stop stop-color="#4663FF"/>
<stop offset="1" stop-color="#17A8D3"/>
</linearGradient>
</defs>
</svg>
