<svg width="198" height="251" viewBox="0 0 198 251" fill="none" xmlns="http://www.w3.org/2000/svg">
<path d="M122.649 90.2491C122.649 90.2491 135.262 86.1853 144.652 84.0833C154.182 81.9813 159.929 85.0642 163.713 86.7458C166.235 87.7267 166.235 88.5675 167.637 88.4274C169.038 88.2873 169.038 87.4465 170.3 85.905C177.307 77.7773 194.545 79.7392 196.648 81.5609C197.348 82.2616 196.788 83.9432 196.788 83.9432C196.788 83.9432 195.947 84.3636 195.526 85.0642C195.526 85.0642 196.788 109.167 177.587 108.466L169.178 90.9498C169.178 90.9498 166.375 89.8287 165.815 93.6123C165.394 95.9946 164.553 108.606 155.023 113.511C145.493 118.416 134.422 114.212 132.74 106.925C131.058 99.638 131.058 98.2367 128.255 95.0136C125.452 91.9307 121.528 93.4722 121.528 93.4722L122.649 90.2491Z" stroke="#76777E" stroke-miterlimit="10"/>
<path d="M122.929 166.482C139.887 172.788 162.732 171.526 167.356 167.883C171.981 164.099 170.86 160.036 170.44 157.233C170.019 154.43 170.86 152.188 170.86 152.188C170.86 152.188 173.523 148.264 174.924 141.818C176.326 135.372 178.428 128.225 178.428 128.225C180.671 127.104 183.474 123.741 183.894 121.919C184.314 120.098 182.913 117.575 182.913 117.575L180.39 113.231L182.633 108.046" stroke="#76777E" stroke-miterlimit="10"/>
<path d="M164.974 32.6547C164.974 32.6547 172.402 40.7823 174.925 47.3686C177.447 53.9548 177.447 58.5792 178.148 61.3818C178.849 64.1845 181.091 69.0891 181.512 69.3694C181.932 69.7898 183.053 73.2931 182.633 76.2358C182.633 76.2358 182.212 77.7773 181.652 80.0194" stroke="#76777E" stroke-miterlimit="10"/>
<path d="M118.725 202.215C119.285 200.954 125.872 194.928 125.872 194.928C128.956 193.246 135.683 182.596 138.766 176.991C141.849 171.386 147.736 170.685 147.736 170.685" stroke="#76777E" stroke-miterlimit="10"/>
<path d="M146.194 171.246C146.194 171.246 152.08 184.278 157.686 198.712C163.292 213.145 162.031 220.712 161.05 226.878C160.069 232.904 159.228 235.987 159.228 235.987H138.766L135.263 232.203C135.122 229.12 133.861 224.776 130.638 215.808C127.554 206.839 129.236 205.998 130.638 200.673C132.039 195.208 134.141 184.979 134.141 184.979" stroke="#76777E" stroke-miterlimit="10"/>
<path d="M99.104 180.354C99.104 180.354 119.285 211.183 121.107 213.005C122.929 214.827 135.543 233.184 140.027 236.968C144.652 240.751 150.959 240.751 153.201 245.936C153.201 245.936 150.819 247.758 147.736 250" stroke="#76777E" stroke-miterlimit="10"/>
<path d="M171.981 87.3063C173.103 84.5037 186.417 78.7582 193.705 82.5418C195.667 106.364 180.671 106.645 179.409 105.664C177.728 104.402 176.186 103.702 173.944 100.759L171.981 96.8353C170.58 93.6123 171 89.6886 171.981 87.3063Z" stroke="#76777E" stroke-miterlimit="10"/>
<path d="M134.141 93.6127C135.543 83.2429 160.489 84.7844 163.012 89.4087C165.675 94.3134 160.769 113.932 148.296 114.072C135.963 114.212 132.74 104.823 134.141 93.6127Z" stroke="#76777E" stroke-miterlimit="10"/>
<path d="M17.3974 191.425C17.3974 191.425 5.34461 211.044 1 215.108" stroke="#76777E" stroke-miterlimit="10"/>
<path d="M160.629 170.545C160.629 170.545 179.269 183.017 182.913 215.948" stroke="#76777E" stroke-miterlimit="10"/>
<path d="M43.0447 197.31L43.6053 199.272C43.4651 198.712 43.325 198.011 43.0447 197.31Z" fill="url(#paint0_linear_47_353)"/>
<path d="M60.1428 210.343C62.6655 213.987 65.4685 217.07 65.4685 217.07C64.9079 215.668 62.3852 213.146 60.1428 210.343Z" fill="url(#paint1_linear_47_353)"/>
<path d="M180.951 49.3306C179.69 40.5022 173.243 34.0561 169.319 29.5719C169.319 29.4318 171.141 27.7502 171.141 27.4699C172.122 21.8646 155.023 14.7179 153.482 14.4376C153.482 14.4376 137.225 -0.276311 115.922 0.00395354C94.6193 0.284218 77.2409 0.00395309 62.8056 11.4948C48.3703 22.9857 41.2227 32.0943 31.2722 64.4649C21.3216 96.9756 19.0792 121.359 16.5565 127.524C14.0339 133.83 10.6703 148.544 10.9506 158.354L14.174 152.888C14.174 152.888 11.2309 168.303 13.3331 176.571C13.3331 176.571 13.4733 173.488 15.5755 170.545C15.5755 170.545 15.5755 194.788 9.12866 203.616C9.12866 203.616 27.0677 183.437 33.0941 182.737L34.7759 185.119L26.6472 198.852L36.4577 185.259C36.4577 185.259 41.0826 191.285 43.0446 197.17L40.2417 186.52L48.9309 178.393C48.9309 178.393 50.6127 180.214 51.0331 181.055C51.4536 181.756 53.9762 198.011 55.658 203.476C55.7982 203.897 55.9383 204.317 56.0785 204.597C56.7792 206.139 58.461 208.241 60.1428 210.203C58.461 207.68 56.9194 204.737 56.7792 202.355C56.3588 196.33 55.7982 186.1 55.7982 186.1C55.7982 186.1 61.6844 199.833 61.8246 200.814C61.9647 201.795 68.2714 221.553 87.0513 232.203C87.0513 232.203 65.7487 218.33 65.6086 195.769C65.6086 195.769 89.574 242.013 112.418 243.834C112.418 243.834 100.085 234.025 98.8238 222.534C98.8238 222.534 106.532 233.324 117.604 232.063C117.604 232.063 104.43 205.438 100.786 182.456C96.8617 159.755 112.839 111.129 113.119 109.868C113.399 108.887 141.289 65.8662 154.883 41.6233C154.883 41.6233 161.33 37.2792 165.535 32.7949C170.159 38.4002 173.663 44.8463 173.663 44.8463C174.504 40.7825 173.383 37.1391 173.383 37.1391C176.186 38.2601 180.951 49.3306 180.951 49.3306Z" fill="url(#paint2_linear_47_353)"/>
<path d="M156.145 194.788C156.425 193.247 156.705 171.246 156.705 171.246H146.194C146.194 171.246 153.482 188.202 156.145 194.788Z" fill="url(#paint3_linear_47_353)"/>
<path d="M157.406 171.246C157.406 171.246 156.705 179.374 158.948 188.342C158.948 188.342 158.247 175.87 160.489 170.545L157.406 171.246Z" fill="url(#paint4_linear_47_353)"/>
<defs>
<linearGradient id="paint0_linear_47_353" x1="43.0518" y1="198.291" x2="43.5789" y2="198.291" gradientUnits="userSpaceOnUse">
<stop stop-color="#EF3F7C"/>
<stop offset="0.9768" stop-color="#FF029A"/>
<stop offset="1" stop-color="#FF009B"/>
</linearGradient>
<linearGradient id="paint1_linear_47_353" x1="60.0791" y1="213.706" x2="65.4409" y2="213.706" gradientUnits="userSpaceOnUse">
<stop stop-color="#EF3F7C"/>
<stop offset="0.9768" stop-color="#FF029A"/>
<stop offset="1" stop-color="#FF009B"/>
</linearGradient>
<linearGradient id="paint2_linear_47_353" x1="9.12866" y1="121.917" x2="180.951" y2="121.917" gradientUnits="userSpaceOnUse">
<stop stop-color="#EF3F7C"/>
<stop offset="0.9768" stop-color="#FF029A"/>
<stop offset="1" stop-color="#FF009B"/>
</linearGradient>
<linearGradient id="paint3_linear_47_353" x1="146.171" y1="183.017" x2="156.695" y2="183.017" gradientUnits="userSpaceOnUse">
<stop stop-color="#EF3F7C"/>
<stop offset="0.9768" stop-color="#FF029A"/>
<stop offset="1" stop-color="#FF009B"/>
</linearGradient>
<linearGradient id="paint4_linear_47_353" x1="157.352" y1="179.444" x2="160.618" y2="179.444" gradientUnits="userSpaceOnUse">
<stop stop-color="#EF3F7C"/>
<stop offset="0.9768" stop-color="#FF029A"/>
<stop offset="1" stop-color="#FF009B"/>
</linearGradient>
</defs>
</svg>
